:SAMPLES-PER-SECOND 30
:FRAME-RANGE 1-663
:FULLY-SPECIFIED
:DEGREES
622
root  3.85296 37.5401 -132.992 -167.051 -5.12943 -178.561
RightUpLeg  -31.197 5.96475 -14.7456
RightLeg  44.4011 -7.19652 -7.78216
RightFoot  -13.3316 0.0637749 8.87419
RightToes  2.91037e-010 0 -3.6325e-017
Spine  29.6811 0.269854 -0.607437
Spine1  2.50675 1.06603 -3.26528
HEad  -6.27267 6.12729 -3.55417
LeftShoulder1  2.01621 -3.00217 -24.7989
LeftArm  -8.98298 -14.1214 -36.2529
LeftForeArm  14.0177 -1.17161 -16.1072
LeftHand  0.105966 -1.2509 -1.7429
RightShoulder  13.0563 22.0864 44.4313
RightArm  13.0123 8.02469 19.3359
RightForeArm  2.74735 15.5385 10.2158
RightHand  -0.172062 3.7194 -2.45041
LeftUpLeg  -39.9635 31.0547 -0.0937745
LeftLeg  19.1473 -4.94666 -2.09709
LeftFoot  8.83282 1.3377 -7.81512
LeftToes  -4.9116e-011 5.71383e-011 -3.31847e-011
623
root  4.82815 37.2766 -132.96 -169.833 -5.91309 -178.86
RightUpLeg  -27.061 10.1612 -15.9254
RightLeg  42.309 -6.94213 -7.00567
RightFoot  -15.5156 0.211057 8.6696
RightToes  2.91037e-010 0 -3.6325e-017
Spine  28.493 0.299169 -0.433129
Spine1  2.60246 0.808329 -2.39834
HEad  -3.56141 7.30736 -4.18525
LeftShoulder1  1.90585 -2.52415 -25.4495
LeftArm  -7.70453 -7.22469 -33.0424
LeftForeArm  12.4356 -3.47064 -15.7557
LeftHand  0.0684252 -1.6149 -0.993214
RightShoulder  12.422 20.6572 44.8217
RightArm  15.5779 6.44788 19.439
RightForeArm  1.43793 16.1485 9.89923
RightHand  -0.144016 3.7969 -2.08061
LeftUpLeg  -37.3363 30.687 2.65914
LeftLeg  19.861 -5.47821 -1.88488
LeftFoot  9.25885 1.61221 -9.16907
LeftToes  -4.9116e-011 5.71383e-011 -3.31847e-011
624
root  5.93645 36.9283 -132.891 -172.57 -7.0081 -179.113
RightUpLeg  -23.16 15.6813 -16.2144
RightLeg  40.0727 -4.08415 -3.95011
RightFoot  -17.532 0.485112 11.1448
RightToes  2.91037e-010 0 -3.6325e-017
Spine  27.3881 0.185865 -0.178222
Spine1  2.8746 0.506851 -1.70478
HEad  -1.20222 9.36294 -5.35295
LeftShoulder1  1.85691 -2.23651 -26.2081
LeftArm  -3.26639 -0.604864 -29.1222
LeftForeArm  6.00038 -7.30548 -15.0352
LeftHand  0.123549 -0.708447 -2.29384
RightShoulder  11.9186 19.6654 44.8665
RightArm  18.9686 5.2972 19.7142
RightForeArm  -0.291907 16.9333 9.47787
RightHand  -0.125878 3.84288 -1.84532
LeftUpLeg  -34.6884 29.3963 6.02265
LeftLeg  20.3424 -5.2972 -1.83812
LeftFoot  9.99768 1.9652 -10.7323
LeftToes  -4.9116e-011 5.71383e-011 -3.31847e-011
625
root  7.26926 36.5008 -132.798 -174.911 -8.50411 -179.73
RightUpLeg  -19.7251 21.0552 -15.839
RightLeg  38.8666 -1.98448 -1.98349
RightFoot  -23.448 2.06982 20.8192
RightToes  2.91037e-010 0 -3.6325e-017
Spine  26.0854 0.303155 -0.420484
Spine1  3.53928 0.408133 -1.17775
HEad  0.660998 12.0468 -7.8295
LeftShoulder1  1.76436 -1.88687 -26.6
LeftArm  -0.807272 5.11957 -26.1852
LeftForeArm  0.987731 -10.9866 -13.4672
LeftHand  0.0740445 1.02994 -2.15032
RightShoulder  11.4714 18.7277 45.0275
RightArm  22.0568 4.65098 19.71
RightForeArm  -1.63974 17.6814 9.01315
RightHand  -0.140079 3.73594 -2.04034
LeftUpLeg  -32.4019 27.747 8.8135
LeftLeg  19.8558 -5.30062 -1.79462
LeftFoot  11.451 2.4081 -12.2592
LeftToes  -4.9116e-011 5.71383e-011 -3.31847e-011
626
root  8.73146 36.3997 -132.628 -176.745 -11.0141 179.984
RightUpLeg  -17.3747 20.7661 -12.8323
RightLeg  39.4771 -2.59783 -2.565
RightFoot  -26.632 2.1996 17.6169
RightToes  2.91037e-010 0 -3.6325e-017
Spine  25.1073 0.0100347 0.446581
Spine1  4.18072 0.181053 -0.792103
HEad  1.47522 15.3315 -9.99391
LeftShoulder1  1.64243 -1.51927 -26.5631
LeftArm  6.83565 9.72904 -23.9554
LeftForeArm  -5.45544 -16.9369 -9.82646
LeftHand  0.12506 -0.936587 -2.21479
RightShoulder  11.2232 18.0206 45.5327
RightArm  22.7289 4.41969 19.7179
RightForeArm  -1.37851 17.6977 9.01541
RightHand  -0.156148 3.69718 -2.25167
LeftUpLeg  -28.1624 21.3112 13.3375
LeftLeg  14.5844 -0.776409 -1.24444
LeftFoot  14.099 3.10601 -14.088
LeftToes  -4.9116e-011 5.71383e-011 -3.31847e-011
627
root  10.2572 36.522 -132.379 -177.496 -14.0431 -179.865
RightUpLeg  -17.1159 17.3696 -9.48666
RightLeg  40.7438 -3.75859 -3.74341
RightFoot  -26.6781 1.78307 14.5259
RightToes  2.91037e-010 0 -3.6325e-017
Spine  24.0497 -0.488638 2.21964
Spine1  4.30567 0.114651 -1.00646
HEad  1.60274 19.1221 -12.593
LeftShoulder1  1.48397 -1.038 -26.5329
LeftArm  11.3532 12.3566 -22.3244
LeftForeArm  -12.5441 -21.841 -6.27442
LeftHand  0.0636667 0.944987 -1.82132
RightShoulder  11.1617 17.7345 45.9112
RightArm  22.822 4.17682 19.887
RightForeArm  -2.02702 17.3809 9.37467
RightHand  -0.146969 3.57828 -2.1546
LeftUpLeg  -26.0265 16.4717 16.1755
LeftLeg  9.36274 2.18771 -0.924175
LeftFoot  11.161 2.9122 -14.9146
LeftToes  -4.9116e-011 5.71383e-011 -3.31847e-011
628
root  11.8186 36.734 -132.093 -177.902 -17.5883 179.86
RightUpLeg  -17.2686 12.5085 -7.32944
RightLeg  41.2426 -3.21981 -3.3038
RightFoot  -25.7863 1.39458 12.3489
RightToes  2.91037e-010 0 -3.6325e-017
Spine  23.0295 -0.872886 3.04401
Spine1  4.38177 0.0120788 -1.48961
HEad  1.43121 23.6747 -14.2575
LeftShoulder1  1.28995 -0.493915 -26.1052
LeftArm  7.11163 13.7623 -22.2399
LeftForeArm  -7.34269 -25.1587 -5.7568
LeftHand  0.0885337 -1.01207 -1.5147
RightShoulder  11.2298 17.6324 46.4332
RightArm  22.135 4.44126 19.8241
RightForeArm  -2.05602 15.8012 10.8155
RightHand  -0.114614 3.59884 -1.73325
LeftUpLeg  -24.3516 14.5961 16.4385
LeftLeg  3.50383 3.26141 -0.637785
LeftFoot  5.63345 1.49658 -10.239
LeftToes  -4.9116e-011 5.71383e-011 -3.31847e-011
629
root  13.224 37.041 -131.855 -178.323 -21.795 179.841
RightUpLeg  -16.7266 6.26771 -5.31762
RightLeg  40.2034 -2.35732 -2.41322
RightFoot  -24.4138 0.97702 9.95505
RightToes  2.91037e-010 0 -3.6325e-017
Spine  21.6242 -0.808298 3.39307
Spine1  4.71323 -0.200146 -0.227433
HEad  1.11067 26.7933 -15.0668
LeftShoulder1  1.32847 -0.613777 -26.1028
LeftArm  2.54866 13.9974 -22.785
LeftForeArm  -3.41717 -28.4041 -6.32344
LeftHand  0.0807844 -1.18996 -1.31852
RightShoulder  10.9152 17.1342 46.2224
RightArm  21.6106 5.04853 19.8824
RightForeArm  -0.729186 13.5437 12.584
RightHand  -0.0705331 3.42395 -1.17473
LeftUpLeg  -22.3684 14.9804 15.968
LeftLeg  -2.0659 14.6419 -1.90855
LeftFoot  3.81262 1.45608 -11.0947
LeftToes  -4.9116e-011 5.71383e-011 -3.31847e-011
